<mxfile host="app.diagrams.net" modified="2022-03-19T11:49:57.677Z" agent="5.0 (Windows)" etag="kUMfOpL1f0nFJoCFZuAy" version="16.5.6" type="github">
  <diagram id="x6UROyzUAYV5hyMNq12u" name="Page-1">
    <mxGraphModel dx="1102" dy="1700" grid="1" gridSize="10" guides="1" tooltips="1" connect="1" arrows="1" fold="1" page="1" pageScale="1" pageWidth="850" pageHeight="1100" math="0" shadow="0">
      <root>
        <mxCell id="0" />
        <mxCell id="1" parent="0" />
        <mxCell id="hyQ3IY4GtzbHKf-saY9M-1" value="" style="shape=image;verticalLabelPosition=bottom;labelBackgroundColor=default;verticalAlign=top;aspect=fixed;imageAspect=0;image=data:image/png,iVBORw0KGgoAAAANSUhEUgAAAo0AAAEOCAYAAADsYS2mAAAgAElEQVR4Xu2dCZhc1XXnT/WmVkvq1tLaUKMVISG0IhDCLMYGHDIG23jB2HEc2yExGS9DHCdxZuKMv7GdcexMYmeZsZOxjQcvYCcxGBND5CQIgpEEkpCEhUBoRRJSo72lbqlbrZ5zqvpJr0rdXfdWvVN1btX/fl99Derzzjvv3H91/eou56ZWrVrVR2jIADKADCADyAAygAwgA8jAEBlIdXV1qUPj7t276ciRI9TY2Ehz5sypig7p7e2lF154If2sbW1tNG7cuKp47v3799OBAwcolUrRwoULq+KZ5SE3b95MPT09NH78eLrooouq4rmPHj1Ku3btSj/r3LlzadiwYVXx3Nu3b6eOjg4aNWoUzZw5syqe+fTp07Rly5b0s06bNo1Gjx5dFc+9b98+ev3116m+vp7mzZtXFc8sD7lx40bq6+ujiRMn0qRJk6riuQ8dOkR79uxJP+v8+fOptra2Kp77pZdeolOnTtGYMWNo6tSpeZ85xcJQh8Zt27bRwYMHqampiRYsWJA3qEowOHPmDK1duzb9KDNmzKAJEyZUwmPlfYa9e/em33gCjcuWLctrXykG69evp+7u7vQfWPlQrYZ2+PBh2rp1a/pRFy1alP5SWA1N4OnYsWPU0tKShuVqaPKhsmHDhvSjzp49m8aOHVsNj53+UiRfhBsaGmjJkiVV8czykGvWrElDowx4TJkypSqeu729nXbs2JF+1qVLl1JdXV1VPPemTZuos7OTWltbadasWXmfGdCYN0WFGQAaAY2FKSecqwCNgMZw1FpYpIBGQGNhygnnKkCjkb4CNAIajUhRLQxAI6BRTVxGHAMaAY1GpKgWBqBRLbV+jgGNgEY/xYRnDWgENIanWr+IAY2ARj/FhGcNaDTSZ4BGQKMRKaqFAWgENKqJy4hjQCOg0YgU1cIANKql1s8xoBHQ6KeY8KwBjYDG8FTrFzGgEdDop5jwrAGNRvoM0AhoNCJFtTAAjYBGNXEZcQxoBDQakaJaGIBGtdT6OQY0Ahr9FBOeNaAR0Bieav0iBjQCGv0UE541oNFInwEaAY1GpKgWBqAR0KgmLiOOAY2ARiNSVAsD0KiWWj/HgEZAo59iwrMGNAIaw1OtX8SARkCjn2LCswY0GukzQCOg0YgU1cIANAIa1cRlxDGgEdBoRIpqYQAa1VLr5xjQCGj0U0x41oBGQGN4qvWLGNAIaPRTTHjWgEYjfQZoBDQakaJaGIBGQKOauIw4BjQCGo1IUS0MQKNaav0cAxoBjX6KCc8a0AhoDE+1fhEDGgGNfooJzxrQaKTPAI2ARiNSVAsD0AhoVBOXEceARkCjESmqhQFoVEutn2NAI6DRTzHhWQMaAY3hqdYvYkAjoNFPMeFZAxqN9BmgEdBoRIpqYQAaAY1q4jLiGNAIaDQiRbUwAI1qqfVzDGgENPopJjxrQCOgMTzV+kUMaAQ0+ikmPGtAo5E+AzQCGo1IUS0MQCOgUU1cRhwDGgGNRqSoFgagUS21fo4BjYBGP8WEZw1oBDSGp1q/iAGNgEY/xYRnDWg00meARkCjESmqhQFoBDSqicuIY0AjoNGIFNXCADSqpdbPMaAR0OinmPCsAY2AxvBU6xcxoBHQ6KeY8KwBjUb6DNAIaDQiRbUwAI2ARjVxGXEMaAQ0GpGiWhiARrXU+jkGNAIa/RQTnjWgEdAYnmr9IgY0Ahr9FBOeNaDRSJ8BGgGNRqSoFgagEdCoJi4jjgGNgEYjUlQLA9Collo/x4BGQKOfYsKzBjQCGsNTrV/EgEZAo59iwrMGNBrpM0AjoNGIFNXCADQCGtXEZcQxoBHQaESKamEAGtVS6+cY0Aho9FNMeNaARkBjeKr1ixjQCGj0U0x41oBGI30GaAQ0GpGiWhiARkCjmriMOAY0AhqNSFEtDECjWmr9HAMaAY1+ignPGtAIaAxPtX4RAxoBjX6KCc8a0GikzwCNgEYjUlQLA9AIaFQTlxHHgEZAoxEpqoUBaFRLrZ9jQCOg0U8x4VkDGgGN4anWL2JAI6DRTzHhWQMajfQZoBHQaESKamEAGgGNauIy4hjQCGg0IkW1MACNaqn1cwxoBDT6KSY8a0AjoDE81fpFDGgENPopJjxrQKORPgM0AhqNSFEtDEAjoFFNXEYcAxoBjUakqBYGoFEttX6OAY2ARj/FhGcNaAQ0hqdav4gBjYBGP8WEZw1oNNJngEZAoxEpqoUBaAQ0qonLiGNAI6DRiBTVwgA0qqXWzzGgEdDop5jwrAGNgMbwVOsXMaAR0OinmPCsAY1G+gzQCGg0IkW1MACNgEY1cRlxDGgENBqRoloYgEa11Po5BjQCGv0UE541oBHQGJ5q/SIGNAIa/RQTnjWg0UifARoBjUakqBYGoBHQqCYuI44BjYBGI1JUCwPQqJZaP8eARkCjn2LCswY0AhrDU61fxIBGQKOfYsKzBjQa6TNAI6DRiBTVwgA0AhrVxGXEMaAR0GhEimphABrVUuvnGNAIaPRTTHjWgEZAY3iq9YsY0Aho9FNMeNaARiN9BmgENBqRoloYgEZAo5q4jDgGNAIajUhRLQxAo1pq/RwDGgGNfooJzxrQCGgMT7V+EQMaAY1+ignPGtBopM8AjYBGI1JUCwPQCGhUE5cRx4BGQKMRKaqFAWhUS62fY0AjoNFPMeFZAxoBjeGp1i9iQCOg0U8x4VkDGo30GaAR0GhEimphABoBjWriMuIY0AhoNCJFtTAAjWqp9XMMaAQ0+ikmPGtAI6AxPNX6RQxoBDT6KSY8a0CjkT4DNAIajUhRLQxAI6BRTVxGHAMaAY1GpKgWBqBRLbV+jgGNgEY/xYRnDWgENIanWr+IAY2ARj/FhGcNaDTSZ4BGQKMRKaqFAWgENKqJy4hjQCOg0YgU1cIANKql1s8xoBHQ6KeY8KwBjYDG8FTrFzGgEdDop5jwrAGNRvoM0AhoNCJFtTAAjYBGNXEZcQxoBDQakaJaGIBGtdT6OQY0Ahr9FBOeNaAR0Bieav0iBjQCGv0UE541oNFInwEaAY1GpKgWBqAR0KgmLiOOAY2ARiNSVAsD0KiWWj/HgEZAo59iwrOuVmh89dvfpr7164kWL6apH/lIeB1XQMSnTp2iDRs2pK+cPXs2jR07tgAv4V0CaAQ0hqdav4i9ofHFF1/s87uFv3VnZyf19PRQbW0tjRw50t9BgFf09fXR8ePH05EPHz6cGhoaAnwK/5BPnz5N8gEjraWlxd9BoFd0dHTQ2bNnadiwYdTY2BjoU/iFLe9peW9Lk/e1vL8rsdW9/jqNWL2amuS1ahXV79lz7jHPTJlCJ66+mjr51cWvnokTKzEF1NvbSydOnEg/W1NTE9XX11fkc+Y+lPwtk79pNTU1NGrUqKp4ZnnIY8eOpZ9V/pbJ37RqaN3d3dTV1ZV+1ObmZkqlUtXw2On3tby/5T0t7+18LbVq1Sp1aMwXBH6PDCADyICVDNQwJDQ/9xw1r12bfo146SXn0DovuYSOL1167tU7YoTztTBEBpABZMB6BlIYadTpIow0YqRRR1l2vFbSSOPwdevSI4nRiGJSWe664or0KOTJZcvSP3n4IinXJfWDkUaMNJZUcGW4GUYaHUcaGW7URxq3bdtGBw8eTA99LliwoAxyKP0tsaYRaxpLr7rS3jHoNY0vvED07/9O9G//lvnZPx2XN4PjxtGJJUvoNMPfMP7TOVLWNh46lPeytIFM873pTedfV13ldp0BK6xpbKAl3O/V0tasWUOCBm1tWNNY6X3uvaYR0KgjCUAjoFFHWXa8BgWNsg4xAkT5uXu3WyJlneab33we9JYvpy1btqTXfMma3blz5xLxB2waPKMXr41yaq2t2RApvow2QCOg0ag0Ewurvb2dduzYkfa3lJeY1NXVJebbsiNAo5HeATQCGo1IUS0M09DIG5OyRhI3bnTPg4wAyohgBIs5m9gugMa4Z94MlQWQv/iF+31nzMiGSN5kY6UBGgGNVrSoFQegsZVmzZqVN70pjDTmzVFBBoBGQGNBwgnoInPQuHLleVB86in3TF566XlYE1AcP37Ia4eExtwrZdo7Pgq5aZN7XAsXZkMk7+gsVwM0AhrLpb1S3RfQCGgsldYGvA+gEdBYVgGW4OZlh8bnnz8PZDLlfPKk21NPmJA95cx1B32aFzTmOpZp8jhE7tzpfutrr82O2/3Koi0BjYDGokVk3AGgEdBYVokCGgGNZRVgCW5ecmgUwIpvXtm71+0p4xtQZCTxyivdrhvEqihozPX54ovZEOm6qUZqgcY31RT5TPkSAmgENObTSOi/BzQCGsuqYUAjoLGsAizBzdWh8ciR7JHEzZvdn+qaa7KnnLk4c1ItUWjMDarQTTUypR6HyDlzknrctB9AI6AxUUEZdAZoBDSWVZaARkBjWQVYgpsnDo1S/Sva4Swjij6bSC67LHvqVvGYO1VojPdbfFON5OWZZ9x7debMbIi86CL3awewBDQCGosSUAAXAxoBjWWVKaAR0FhWAZbg5olAI5+4kgWK/UdQ5g1fICgaWZMpZ9l5XKJWMmjMfR7ZVBOHaqk16doWLcqGSM8j8QCNgEZXqYVqB2gENJZVu4BGQGNZBViCmxcEja+8kj3lfOCAW6RyJmq8XmIZCy2XDRpzM/Xqq9nrIXftcsulWF13XTZE5rkS0AhodBdXmJaARkBjWZULaAQ0llWAJbi5EzTySVBZo2Me5zinwSYCxRtvLMETud3CDDTmhitrPuM7sw8fdnsgh001gEZAo5uYwrUCNAIay6peQCOgsawCLMHNB4TGnp7sHc6yscO1yRGj8SnnMtYlHCpks9CYGzSfpZ0FkdI3Li2+qUagnetYAhoBjS7SCdkG0AhoLKt+AY2AxrIKsAQ3j6Bx5C9/SXP27aO6J5/MQMqZM253v/ji7CnnqVPdriuzVTDQGM9Tb282QHpuqul94xtpx/TpdJyPV5vOO9PHKm40KnP3Zt1+F0/579+/nxr4VCCcPW2pZ5KPBdAIaExeVR4eAY2ARg+5hGUqU8y8IaP78cep5oknqE42aLg0GTmMH88nI4sBtiChMTfPR49mQ6THpppe7rfam28+Pyo8cmSAvegWMqCxjaYYOs7SrdcKswI0AhoLU05CVwEaAY0JSan8bnik5VxR7U2PE7XzBowdjmHJWsQIFGWNYgW0ioDG3H4oZFON1EjnAUwaef15gDS09jQJqQEaAY1J6Miyj018tGlnZye1tgIay9pPgEZAY1kFWMzNpexNVNpFfq5bl/HWwq/P9jv+Gv9kdrygLV58fspZ1sPJrucKaxUJjbl9JJtq4uV9pNB6vE3j//lE/z98hX9Gm+CHD8/elc3T2SE3QCOgMWT9usQOaHTJUglsAI2AxhLILLlbSCHtOCRIoe3cJrOQn+v/R2ZJ+mei01wvUda5jb7jDqr/lV8hKrKIdHIPpOepKqAxJ33dvF71wAMPUDPX1WyRLxG38LrVm/qN/jv/HOzYbznnO35SDW+qCakBGgGNIem1kFgBjYVkTeEaQCOgUUFWybnkzStZ5zjLGjeX9jv1RLN4F25qAh17w8O0JZVKX7WIi0c3SumWKmjVCI3x3dOX8mkzY354NZ8tyGsUDvDw81cc17SKNmbNyobIyZNNKwbQCGg0LdAEggM0JpDEJFwAGgGNSegoMR979mQX1XYtBC1nNsc3r4xk2PyX30qHdfytj9GLx0YDGhPrJLuO4tA4t/UMtTzUvz71zX9FNP0D2Ztq5AuJa5PlDPGRSGObagCNgEZXKYdqB2g00nOARkBjWaV44kT2SOKGDe7hXMk7HOKgOGzY+WtPccHovx2X/v9T8z9OG0YzMHDDSKN7ekO0jEPjwq6f0vC1X8g8xm/xaGPz9OxH2r07GyLl/13b9bypJirozmV+yt0AjYDGcmtQ+/6ARu0MO/oHNAIaHaWSnFlUJ1HWJsp/u7ZLLsnevCLr0IZqD72NaNsj1DtqGj236EFAo2ueA7aLQ+PSlz5Oda8/x+tXryF6H6+FzdeipRDRaTW5m2oGu142UcVHIa+4It+dEv89oBHQmLiojDkENBrpEEAjoFFdijJ6GH0QCyjK6KJLi078iEZ0fDcn/PI+osc+nL7T5oVfp47mxRhpdMl7wDYRNA47tY8WP/fOzJNc96dEV/+R/1OtWpU9EulaDH7ixGyInD3b/96eVwAaAY2ekgnOHNBopMsAjYDGxKUo6xDjO5xlnaJL49Msso7nu+oql6sGtznNGx/+JrOWcf9Fd9GumfcCGovLqPmrI2icsvub1Lb77zPx/sYmotb5xcUuwBg/L1uA0rXJCHl8JHLSJNcrne0AjYBGZ7EEaghoNNJxgEZAY9FSjJ/aIbDos8Hgat7dGo0kys/a2qLDyXLw8B1ErzxEp4dNouevegjQmGx2zXmLoHHJmtupoft1oml8Isy7VyQfp0xdx78YSb1I17ZkSTZEjhjheuWgdoBGQGPRIjLuANBopIMAjYDGgqQY/8B8+ml3F3PnZm9eGZfZrKLWNt9P9LMPpt2/MvcL1HbT76Hkjlqyy+9YoHHfij+lmS9/PhPMbbyWdc6d+oHJ6Hp8JFJOrnFtN9xwHiIL3FQDaAQ0usotVDtAo5GeAzQCGp2kKIWS46DY1eV0GUl9u2hqTkYSuXZeqdvZr7dRzcm9dGLUfKr74LOAxlJ3QAnvJ9DYc//VNOr4Ruptnkm1v7WthHeP3UrOyI5DpGt90QI31QAaAY3lEXrp7gpoLF2uh7wToBHQOKBAtvGHbXzzipzr7NKi49miKecy7CTNDbPzqS9S05o/Tv9zz63fp/rL3+fyJMHbVGNx7+7t/0INP+YTf7h1Xvk5anqjHANjoD3zTDZE9sph2A7NcVMNoBHQ6KCmoE0AjUa6D9AIaExL8dCh7JHELVvcFXrttdlTzu5XlsTy8OHDNPJ7c9Nr3PomX0Op9zuUXylJZLo3qUZo7P3JXVS79UHqS9XR0fe/TGMmzdBNciHee/ikovgo5OrV7l5kJ3Y0cn/jjUT9m2oAjYBGdxGFaQloNNJvgMYqhcbWVpq2fft5UPT54JrPO1HjU84tfESb4SbQeOKJz9HUHX+difJt/0g0u78ci+G4iw2t6qDxAC+h+O7SdNoOTH431d/6DRo7dmyxadS/nvWZBZE+m2pkJJ/fi+2XX87VAWZSXXMzLZGNNlXS1qxZQ318/nxbG6Cx0rsc0GikhwGNVQSN/Ad23/e+RyMYEJvXrqWUa905/oOcdfLKtGlG1OsWhkDjKy+/REuevZ3qu3lEtY1P83ivR1Fxt9uYs6o6aPwJfxHY+uN0P2xc+gC1LbwlDGjMVU4Rm2pOMESOfBsXtZcvdbLBpsIboHEp1dXVVXgvZx4P0GikmwGNFQyNL7+cPeX8OpcgcWmjRmWPJC5c6HKVWRuBxq1bt9LkPd+lqTv/JhPnOx4imvV2szEnEVhVQeP2nxL9+PZ02l6b8mu0e8YnaDZP5QYx0pivs2VTjWxCe+KJzIik66YaKeUTrw9ZgSOQgEZA42BvnxQPQffle28V+/ttvPj/4MGD1MQ72BYsWFCsuyCuBzRWEDQeOJB9jvMrr7hrUEp9RB8wFTZCEUFjqu8MXbXuDkp1MTy38fO+lz+EK7hVFTR+fznT4mrqGzaG1l7xD9RbO6JyoDFXo7/gNbnRmkgBSddNNbL+MQ6RUnQ88AZoBDQCGkv8JgY0BgyNp0+fH0mUkQiecnZtPfPmUf1b3pIprC2vBAoMu9671HYRNMp9l/auoLpnPpsJ4ab/TbT4d0odTsnuVzXQuPHviFZ8NJ3Xnuu+TOsoMy1bMSONQymmuzsNkMcffphq+Bz3kT6F9eObagQmZad2YA3QCGgENJb4TQtoDAwapXRHvF7i2bNuipk+PT3KsGvWLDq8aBGN5ZH0aYGtTXR70Aut4tC4iKfaGx+8kneL8wkedcMzR8yNnlWoa9PXVQU09jI0fZNHzDq4mDYfFXjqvc/SBjnrvFqgsV+B0e7pJq6fuoBny86NRL74ortG+zfVnBuNlJqRxhugEdAIaCzxmxTQaBwaZSelTEVFoCjHl7m00Xzmcvx4Ph5ZlLZ+/Xrq5tGJSTxVVZXQyMDceIA3wfxDppYfzeJNA+942CWjwdlUBTT+68eJnv/bTN/c9gCdmvb2qobGBj6/PWv39M6d2TuzXc+Bl3zKkhX5GyKlfYwuWQE0AhoBjSX+aAI0GoPGvXuzi2rLH32Xlkpl73B+wxsGvArQyNDY2Ei08tNEz/2vTI5u4s0xiz/mkuWgbCoeGl/6EdFP+48InPMehsYfUnT2tHRUVUxP9yvSuU7jJh5Zj9eIPHbMTdMjR2bXhzSyqQbQCGgENLq9hROzAjSWGRpPnsweSXz+efe+Xco16WQtUjSiKDCUpwEa+6FR8vQd3hV+kD9EaxuIPsQ7VEdz4eQKahUNjbKZ6TuLiE6+RjR8PC8z4CnpEZMBjbkjjfn0HN9UIzDputwlfjyo/A3iZS/laIBGQCOgscTvPEBjGaDxqafOg+LKle49Ln+Y41POBSxcBzTGoHHXz3ma+pZM/me+legOLttSQa2iofFRPgpyywOZ3rrtB0Rz7kr/J0Yac6anffTcv6nm3Egk13V1bpdemr0ze8IE50uLMQQ0AhoBjcW8gwq4FtBYAmjcuDF7yrmjw62n+NSWrJHEOXPcrhvCCtAYg0bJ08o/4Gnqr2Qy9qavEV3xyaJzbMVBxULjxm/wbul7MmleyLumb/n6uZQDGouAxlzhxo8WldI+PptqolmQqMSPnEmv0ACNgEZAo8IbayiXgEYFaNy9O3uH86u8s9OlSWX/+EjismUuV3nZABpzoFGydz8fu9bevyzgTi5ddDFPt1VAq0ho3MfVAx7kkjpnzxCN4S9Rv8FfyGR5QX8DNCYIjbnvgR07sutD+myqkc00EUBezycyJdQAjYBGQGNCbyZXN4DGBKBRFpNHi8tll7Oc4ODaBAzjoKh8JBSgcQBofJXXcv2Qd4lKk/VxUvR7XGa3ecit4qDxxB6iHzBwHN+Z6ZZ3PU40nWuNxhqgUREac98M8RkU+ft3/Ljb2yW+qUZAcvFit+sGsAI0AhoBjQW/fQq7ENBYIDTGdyD+x3+4J1+mmOObV2QKuoQN0DgANEr+X/g20eMfyfTEeD4N6j38ITh8XAl7JvlbVRw0ygjjHl4PLG2QHe+AxhJCY65kn346e2e26yFuRWyqATQCGgGNyX92DOkR0OgIjVzfMKuodmenW0/JZpX4SGKZdhlGwQIaB4FGSdCaLxE99UeZVE27mejdK9z62KhVRUHjo+/njS+84UXass8QXf8/B8w6oLGM0BjvETmtKv7F+tln3d8l0RfraEp7iE01gEZAI6DR/a2ViCWgcRBo3L49e8r5NS7t4dKk7E18JFEWhBtqgMYhoFH66Ynf5eMYv5rpsct+jeg/fddQ7/mFUjHQ+OQfEj37Zac+ATQagcZcqcZPqRGY3LLFXcxX8glO8jc1gsjYphpAI6AR0Oj+VkrEEtDYD42HD2ePJPrsFJRC2nFQlELbRhugMQ80Sr/FR7WWfoo/rPqLgBvt08HCqghoXPV5oqf/JPOIF/MJJXc+MWQvABqNQmNur8U31QhEyqEGri3aUMM/13Bdyj6eBm9ra6MpU6a4egjarr29nXZI/rgt5UGJOuV18FaStYkL03fyDF8rL+ma5TBjl2Jh9GkHv23bNjrI34ia+MzNBXw2bzW0qoVG3uHc8fDD1Lx2LV300ktEq1a5d7ccyRefcpYj+wJpgEYHaJS+/NFNRLt5U5O0G/6M6CouzRNYCx4an/4svy+/kMm6nA/+Xq5pOnJoMAA0BgKNue+lAjfV9PJn9XEGp5qbbqKWd7yDiI8JrfQGaAQ0llXjVQWNsq6m/xznPt7lnOrpccu9fIONjyROn+52nUErQKMjNMqJIw/eSHSIz/6WdhUfO3hDfz1Hg/06UEhBQ+OTDOnP9ud77GWZ88HH5D+xB9AYKDTmClg2F8rfaqkPKT9dx4wuuii7yPjMmYG8W93DBDQCGt3VomBZ0dC4dWv2lDMP6zu1ESOyRxIr6NsroNERGkUoB7l00iN8pvHh/vVX8z5A9Kv3O0nIglGw0Pjv9xKt40Lr0iZwORYBxlFTnVIKaKwQaIz39qlT2fUhC9lUE01pj+eSWoE3QCOgsawSrihoFCjsH0lM/xRodG1ScDaacn4jr52q0AZo9IBG0UDnAaKf8hF1r/KIhzTZVX0bH1/XaL8cT5DQ+PPfIdrQf8LLJK5hKsA4YpLzuxHQWIHQmNv7r/MsQP/O7FM/+xk17trlrA+KNtVEECkbFwNrgEZAY1klGzQ0xss6SFHt555zzmXPZZfRoYUL6Tj/Ebn0Hj6STArOVkEDNHpCY6SJ+FnHrfMz4DjuctOKCQoaj/MHv9TJjNaRtvGXOAHGYWO8cgxorAJojClCdk838Mk003ljyGgpiyYwuW+fu2Zim2rouuvcryujJaAR0FhG+REFB42yYUUAMaoB1tvrlr+pPL0V27yyl3c47+E/Nin+uUzhuD63oEpvBWgsEBqlq+LleIZzUXYBx6m8YcZoCwYadzyWAcaT/WWtLnk7lzr6HlE9LxPxbIDG6oPGC3ZPb9iQXSOyo8NNRc3N2aV9jC5LAjQCGt0ErWRlHhql9E18yllK47i0lpbzm1cEFi/PHhXayyUeAI3TXDIZvM1h1szW/qUKi/iDoLGYKal4AXDJzCAnk1hIWhDQuPYvGca5rFHUhijc7ZJTQCOg8QKdRJtqooEGFyGJTbQBMqoPaWRTDaAR0OgqYRU7c9AoUwvxc5z761E5PXx8h/O11w55CaBxEk2bBmh00lWu0S/vI3rsw+f/ddbtXMvxL7gszCUFudO6yDQ0dvPozxO/R7Tp7zOPn6ohupWPctf6+y4AACAASURBVJz3waLSAWgENA4poPimGvmc8VjSRHPnnt+ZLSBZpk01gEZAY1F/JIu9uOzQKMfxxaebZV2Ka1uyJDPlHE07x04KyOcC0AhozKeRIX+/+18zI2Svb8yY1Q7LFAFf/LGi3CZ5sVlo3MLT+lJSp+PVzOPK2lABxklXFf34gEZAo5eIZPNkVNZHIFJq9rq2q1iv0ZpIgchiZjBc78l2SUOjcLS0o0eJov+W0sPWyg+juLejSKQTd+7MdGj0Em1Kh8pPKRk4yX1z4QV3LQs0RtMFAovyhnVtMj0QL6pdxIMDGgGNrrIb0m7l7/NoxZ+fN5n1tgw8Ghh1NAeNJ/cTSb5ejB3NOJfPlH7LN3j9YjIb0QCNgMai3td8wEdWfUjXTTVyClh8U02ema5iYkwCGoUrnn8+c5rjfn5bRrCYG5cMrgpjLObKVyVi4kFTA2gcQjURKApPxek/gsX4v4kbAUjp3OXL/b8dlAQa+fifrCnn48fd3jPjuKxJfMpZHjKhBmgENCYkJaJdP8+MOh5knUtLjzrydPXi/5zYLQpxZAoaN32TRxcZGE8dyTyKnOxyA58nfRlDY4IN0AhoTFBOGbKKFxn33VQTgSRX6kiqFQONwhbCFfJY8t/CFAKE0cii/L/8u7wEJgUqhTekCV/cemtST+HvB9A4SM5kVPEx3kwoHSYDacJJ8opGFuOXSWdKp8pLriukY1Wg8VWedopPOfORfU6ttjZ7JPHqq50uK8QI0AhoLEQ3Q14jUPRsbNTx4jcRXfm7RDN5zWMZmglo3P7PPBLLJ7tEdS4lDwt/OwOMw3izWsIN0AhoTFhS2e6eeiq70LjrzaJNNRFEzpjheuUFdoVCo4CisIUAoYweCgC6TNYJW8i18pIm1wlAlroBGnMyHn0DkIoyAojSKT5DwgKZcq10rAhBjuF0EUQi0Cgjh/HNKzKy6NpkXUh8yrm+3vXKouwAjYDGogQ02MW7VvSPOvJpMlGbwjUHBR4vuUPlloM5LSs07pZNBgyLO352PrwxlxK9kf9NpvCVGqAR0KgkrQvddnVll/ZZu9b91lwnmKJd2QKSrVzCy7EVAo0Ci8IHPmyQG44wxkMPZQa0JHR5lbJ5Q2NXV1efdoC7eUTsyJEj6ZIcc+bM0b7dOf8CjI88UstrcFN09dV9dP31vQWvH9i1K0X331+bvv497+nlHbJDp62X6xy+8ELmA66trY3GyZSwQ6vhb1w1PM5ds3Il1Tz9tMMVGZO+Sy6hs6w2efXKySsebxbnmzgY7mflHzhwIF2ncWGCUwcOty6ryebNm6mHz9wezzv/LpJzWqugHeUh+V39p0bM5WH7YcN4+li51a39MtU9/1f8tf7QuTudnbScehd/gnpnvVP57hn327dvpw6eThs1ahTNLFG5kJoDa6hu/V9SzTb+dInasNF0Zsmn6MwVvFtadkkrttNc8F9gWZpUBxhtbTW/0rPv47V3r/NJKfX8pXvevHlKd7HnduPGjXwsdR9NnDiRgaiIxf0JPFqKN9XUPPlk5jORXymPE8n6+JCJs/x5KJ+JZ2+4gUfhB/8bdejQoXS5OGnz58+nWpmhG6KtWFFLq1cXzxbRLSJ/c+b0pRmjVO0l3qQkXwrHjBlDU6Xucp6WWrVqlTo05gtC4/fd3TW0cuUYeu21YXTFFcdZBCeKvs2hQ/Vpn4cPN9AddxxgEOwp2mfTyy9TC3+TapYXlymoGWzlbM6deriD5dSV40uXpn+eYjBFQwaqIQOpvh6avPcBmrTvB1Tffb6+6IlR82j/Re+jQ+NvqZg0tLY/RuPbf0rNR8+fytRXU0/7pvw6vdb2AeqtbaqYZ8WDIAMuGWhksEt/Xq5bl/5Zf/Cgy2X8xSqV+bzsf3UUMajxwgsjeYRxdJorli/vX5zoFsWQVsIXW7eOoBtuOEyXXsoVUAy2ioVG6VDpWOnQJIAx6juB0QceyHzzuuuu/dTQcNarW4fxN9e04PtfDXLep0Pr42+6xyJIZNGflGF4NGSgqjNwNgOPe39ADd3n30enGyfT4XE30hF+dTQvCi5Dwzt3MCg+Sq0HHqX6nv4NLv1P8dqU9zMs/jr11PsdAxhcEhAwMuCYARl4iX+m1sr0tkPr5SNu0wB5xRXpn508W+fSdu0anh48mjati6655pg3A+S7x4oV43gGZzjdcsuh9D2stRQPyaqPNMp05XFenyfTVy7Dn8UmaevWWvqnf2rgM9TP0E03FT8amBtPe3sNffvbw2j27F565zu7Bwz37NmztI3LDNTxc1/MP2UUsZ6nnmtZ4K7tDK9L7OFzO89cfz31yNC6lB8w3uSUEBnmlzZ79mzj0SYX3g4uli7rWGWIv7VMSwOSexo3TydOnOCR/MwRddN5BbhM4ZWrNW7+BjX+8v9QzYn+GoX9gfSOmkY9027n123UM6H4eoXiVtbtdnId1KamJj7cgncrJ9Bqj2+nuj0/p+Eb/pxnG85PvYvr3pFTqXv2++n0JXfR2ZEXJ3A3fxey9GJn/67AyZMn85HyyZTy8Y+ktFcc5FEsWVpVV1dHM4rYZFHaqIu/W3TSkyyrGjt2bPEOS+ih7plnqJ7Lz8mrTsrQObZe1vUR3vAgADn6Dl4nLbtaBmjf/34D80wNffjDp5lpksen06dTab6Qds89/cUeHZ+hEDNZPijLT5r5uEdZjpCvpXjdQvJPnXNXgSd588kf2QULFuSLqejff/3rmZ1M99yjVwNJttfLS+6RteSDYVE2r5z9+c+p89FHaaTP5hUZPYxvXmEACa1hIww2wpRVs7/8DtHWfyLa9pMLw5Aaj7N53eNs/kCYXPg2xcQ2wuxZmdnQIq+omHk8atnYcvlvZGIuc8NGGGyEKbMEC7u9HHIRL+3ju6kmXiOSAVqW9T7ANfS1dzrLxlvZHCMbb2Xjrmbz3ghTadBYqmQLlAqcysaYe67k9UbxXc5M7U5NNkzE6yVWwDdZQCOg0Un72kaneZ3R1h8TvcKvbY9ceLfaBqKJV2ZOS4l+jnXbpFcQNB7hGYZ2PpWpnT8N5OcB3hHaNcBaLDnFZTZ/Ulz+IROFzKPEARoBjdpv2ZL451nPc5/VMurjMfNHy5bRfa2fpqMXL6B7vjyTGpv5b4hi++pXM4Nfn/mM4k3YddVDo3wLkDqLMgKo1l55JV0v8YkHD9ATq4fTvSe/SKPJYTEsj7RmjSRqf4VQS8DgjgGNgMYyyG7oW57izTIRQG5/dHDbRp6Ga+WZkFE85SxFsnNf9SOIamp4ofordOx4B7W0jKbZlzJoymRNJ38Yycks8or/99GtGUg8fWzw+05/C9GMX+XpMC7UNja5QvtJ9gOgEdCYpJ7M+JLP8v4Bn7P8mV4jUDlIO8qf8l+le+lGeoJurHky+6SaN7wh8UeKZjPvvdf/cBGfYKoaGoXKhc6FxRKtsC6bVURYUWHt/m8np6iRvkSfoVvpMVpOXKxpgNaxaBHV3nwzNd12W+kLMPkoJyFbQCOgMSEp6biR0b09/Af/AM8O7H+WX/xTRiVL1ep4amICn+0+nv9IXXxjBhYbRpXq7gXfB9AIaCxYPIFcKHUa2x9/PL2p5mKGyZRQ28mT56JfxZ/yj/Gn/YfoPppOO7OfSkpQxetDJrAMT3jmS1/SnwqvamiM1hvcdVfmtJeCWzdvbolPNz/LHy6DNPnmMYn2013EQ5zSRCw85Sx1odazkHpHjEgvoJ4wYULB4YR0IaAR0BiSXtOxHtqcAUgByaM88tCxl+gEv2SEstBWz7MKTVxloZnrnkWQOJFhUUYyA2yARkBjgLL1CnnA4t5cHzJigYd4x/ROxsV7ebwxb7uYN6zFIXKQTTX5/Ag0yqXCNFqtqqFRKrNLhfaChnNXr84+oo93wrq0h1rvpi1T30Kf+SQvuJVNLCIWbomcCOMSgDEbQCOg0ZgkCw+nh0cZBB7lJSDZK2uV+2j/a/uoq4t3Tw9vpIkTxvM/8ea3Jt51OIIhMXo1NBd+X4NXAhoBjQZlmWhI+U6EeeA7p+nos1vpnsb7MiDJdSKdmxSG/10+veruu50vEcNo38SHPuR1mZdxVUOj7DaSjTCf+5xXzoh+8zeJvvUtt4t4W/q5zSsMiY/tmZ++Z+5iVUBjitcNL3PLaQVYrV+/nrp5hFpOT5ATM6qhSXmlqDTHIl6GISc+VUMraCNM4IkBNAIaA5dw3vDzQeMFABffVCMQ6XJSzYYNfEb8wryxRAayR0OOF5SBMK1W1dBYUIKlpmC+unrRMLOMJHLdxHiLFqsKNMY/MwGNgEatN7kVv4DGFl4GU8w6GCs9mT8OQCOgMb9KwrZwgUZZujjoVLFAowBBtLRNaC+3ca3mXIYYKmsFMY1nN1Q1NMrU9ECjfnlzyBXhiUeKzjXZSSOAGNVMlF3Pg7QIGnNHNwGNgMa8ugvcANAIaAxcwnnDl7PV9/OHf0MDoDFvsgI3yAeN9913vv6z06PK9HUEka/yoQO8z4G+9jWnSyMjuac0TE97pc3deDCAy+tBCn7KizetpEGRK8O7NpkSl4MScoePAY2ARlcNhWoHaAQ0hqpd17gBjW2JnXrkmvNy2eWDxoIHpYp4IKkGIxthpMi3VqvqkcaosHdBG2EK7JHB6kICGgGNBUoqmMsAjYDGYMRaYKCARkBjJJ1S1U2M7if1pgUaZXWcvLRaVUNjqeoaRZ03VF1IQCOgUetNbsUvoBHQaEWLWnEAGgGN8c/7UtRNjO4XVYORqekCK/Y4vS2qGholQ0Lmcha0Zl2jqCeGqgsJaAQ0Or1jAzYCNAIaA5avU+iARkBjXCjCF+mjgzVPnOu/ofcaSidFX2hU9dAo6w6E0EsxRS2dKhukBjobEtAIaCzwPRzMZYBGQGMwYi0wUEAjoDEunWgJXNEHiOTRYzQgpT01LWFUPTRGU9RSCUNztDFfpwIaAY0Ffk4FcxmgEdAYjFgLDBTQCGjMlY6MNkrTqp0oDBPfK6Fd/rbqoVE6M1qwqrUWQDo1PnQ8UKcCGgGNBX5OBXMZoBHQGIxYCwwU0AhozJVONGAklfk0djVHs6W33kq0fHmBwvW4DNDIyYqgTnYfCTjKGsckm3wLEOEMNUQNaAQ0Jqk5i74AjYBGi7pMMiZAI6BxID1Fp88JNAo8JtWizS8CiwKNpWiAxv4sR9vVpYK7gKP8TKJFYsm31gDQCGhMQm+WfQAaAY2W9ZlEbIBGQONgOpLZRqnRnNSIoACjzJJGzKI9LR09F6Ax1sPSodKxkvxiRxxl9FKAUUYYXb4FABoBjUl8aFn2AWgENFrWZxKxARoBjUPpKJp1LGYPhbBFVDhcSuvIDGapgFGeDdCY08OyuzlaVOoCewMJROBTOlVGL2WE0WWdAaAR0JjEh5ZlH4BGQKNlfSYRG6AR0JhPR9EaRLHzYQyBRRldlJf8t1wrfFFKYAQ0DtK7cZIXE+kY+WYw1FpHuUZgUYaLBTzFNroun4jk94BGQKOLTkK2ATQCGkPWr0vsgEZAo4tOhBEE/qQkjzThCxk1FG6Q6WYBQRl0Eq6Qn2In18j/i51McSe998IlbkBjnixJJ8m3AoFBadKR0mHyUzpWOlBeYhd1sPxOYFEWu/p8AwA0Ahpd37Sh2gEaAY2hatc1bkAjoNFVK2InbCFL2AQKhSUGa8ISwhTyKhcsRrFhetqhh6UzpVOlcwUO5RVBpPwUgBSYlA6NviU4uM0yATQCGn01E5o9oBHQGJpmfeMFNAIafTUT2QtXRKOJEUAKIAowlhsU488EaCy0h/k66Vif0cShbgVoBDQWIcUgLgU0AhqDEGoRQQIaAY1FyCeISwGNRroJ0AhoNCJFtTAAjYBGNXEZcQxoBDQakaJaGIBGtdT6OQY0Ahr9FBOeNaAR0Bieav0iBjQCGv0UE541oNFInwEaAY1GpKgWBqAR0KgmLiOOAY2ARiNSVAsD0KiWWj/HgEZAo59iwrMGNAIaw1OtX8SARkCjn2LCswY0GukzQCOg0YgU1cIIHRq/8VmimZcT3cInMAzU/uK/DPzvR44coeEtHfTOj3VyPTYuyBZrq7ik1y9+lvmHCW1EN9/JOyWnDexnBZ9hv+mZjN0Hfl+tmxJxfIp3CW7YsCHta/bs2TR27NhE/Fp3AmgENFrXaLHxARqLzWBC1wMaAY0JScmsm5ChUYDx218guvOTRJ/62oUpFvi791cHT/30+Sfocz/akwWN//U9RP/2D9nXjGgm+viXie74aPa/i+3qfyGaMY+ofQ9R0yiirzJsDgaY5RYBoLGBlixZUu5uKNn916xZQ319fdTWBmgsWdLLdCNAY5kSn3tbQCOg0YgU1cIIFRq/+xWiv/mDTFoGg8bI5s3vJnrTu7JTuG/fPqLaDrr6V/rOQaOMSv7wr4iW3UJ0D8PovGVE4kPAVNpfr8j8m7QISAUSl/NJEPt3Ef32dURv/RDRRz+v1l1FOQY0AhqLElAAF7e3t9OOHTvSkS5dupTq6uoCiLr4EAGNxecwEQ+ARkBjIkIy7CQ0aBQ4++b/IHrkW+eTOhg0fvE3M3Z/+PULRwm38KkAx44do5aWzJpG8fuO6UQyqvi9jdmjhXH4/NMfZe4r09IP8ujm/+Wp6ahFU+EDjXpakACgEdBoQYeaMQAaW2nWrFl5U5ziIei+vFZFGmzbto0OHjxITU1NtGDBgiK9hXE5oBHQGIZSC48yJGjcvIboMzxiKFPB0y/LrCNcw6N/g0Hj3dcQvcBnyX5r9fkRwihTudAYgeHtHyH6b9+8MJ83tRCdPM4jjP1/aTHSWLjmSn0l1jRierrUmiv1/TDSWOqMD3I/QCOg0YgU1cIICRpldO+z78tA4vs/RfT9v8hMJw8GjctTGbD80j8SrVuZgU0ZSbz+dqKa5uyRxmgto6xdHGhDSwSgn//B+U03A61pfGCzWlcV7RgjjRhpLFpExh1gpBEjjWWVKKAR0FhWAZbg5iFBo4w0SovWFUZrEAeCxmgkUCBRRghz2w3vOkbv+v0t56anB4LC+DURVOZOdWP3dAlEWuQtMNKIkcYiJWT+cow0GukiQCOg0YgU1cIICRpzkzAUNP74G0R/dk9mZFGg8u13Z9YpCuTJmsidLxItfvNhuvdv29NrGvNB41D3UuuchB1jpBEjjQlLypw7jDRipLGsogQ0AhrLKsAS3LxSoVFGJZ96ZOAajrLp5X3zz1LXiRr69N/voXff3QZoLIHWynULjDRipLFc2ivVfTHSWKpM57kPoBHQaESKamFUKjTmS9gnbu2gZx8fRbf8+hH6/P8bA2jMl7CAfw9oBDQGLF+n0AGNTmnSNwI0Ahr1VVbeO1QrNH72g0doxf1jnKFxsDWN5e09v7tjehrT036KCc8a09OYni6ragGNgMayCrAEN69UaJQSOru2EN3Ep7ZI8e3clguN+aAw35rHEnRV0bcANAIaixaRcQeARkBjWSUKaAQ0llWAJbh5pULjJ9+SqeH44T8e+ISWu6/rpBeebqI7P91On/rKhPTJL3LCjGudxhJ0TeK3ADQCGhMXlTGHgEZAY1klCWgENJZVgCW4eaVCYwSBUqfxJ69mJzIqx9M4ope++JOddO2bZ507EUbs/+4/8p8IU4KuSfwWgEZAY+KiMuYQ0AhoLKskAY2AxrIKsAQ3r1RolNTdNS9TWid+lrSU4pERRand+LaP76Z3fqzz3NnT0bGDctrMn9w39NnTJeiaxG8BaAQ0Ji4qYw4BjYDGskoS0AhoLKsAS3DzSoZGKa3zx3dljhKMN6nd+Nbfbqdr373jXHHv6PfR2sZcezkp5o6PlqBDFG8BaAQ0KsrLhGtAI6CxrEIENAIayyrAEtw8ZGiMTmNZwGdM38JwOFiT6ehf/CzzW5l+vvlOoqNd2ccIxq8dyF4Kg4feAI2AxtA1nC9+QCOgMZ9GVH8PaAQ0qgrMgPOQobGY9G3ZMjg0FuPX8rWARkCjZX0mERugEdCYhI4K9gFoBDQWLJ5ALgQ0tpxb0xhIlxUcJqAR0FiweAK5ENAIaCyrVAGNgMayCrAENwc0AhpLILOy3gInwuBEmLIKsAQ3x4kwJUiyyy0AjYBGF52EbANoBDSGrF+X2AGNgEYXnYRsA2g00nuARkCjESmqhQFoBDSqicuIY0AjoNGIFNXCADSqpdbPMaAR0OinmPCsAY2AxvBU6xcxoBHQ6KeY8KwBjUb6DNAIaDQiRbUwAI2ARjVxGXEMaAQ0GpGiWhiARrXU+jkGNAIa/RQTnjWgEdAYnmr9IgY0Ahr9FBOeNaDRSJ8BGgGNRqSoFgagEdCoJi4jjgGNgEYjUlQLA9Collo/x4BGQKOfYsKzBjQCGsNTrV/EgEZAo59iwrMGNBrpM0AjoNGIFNXCADQCGtXEZcQxoBHQaESKamEAGtVS6+cY0Aho9FNMeNaARkBjeKr1ixjQCGj0U0x41oBGI30GaAQ0GpGiWhiARkCjmriMOAY0AhqNSFEtDG9o3LlzZ59aNP2Ojx07Rl1dXVRXV0etra3atzPh/+zZsyRnWUprbm6mpqYmE3FpB3HixAmSl7RJkyZp386Mf+lr6XPpZ+nvamhyHvHRo0fTjyrva3l/V0M7cuQInT59moYNG0Zjxoyphkcm+RJ88ODB9LOOHj2aGhsbq+K5jx8/Tp2dnVRTU0MTJkyoimeWh9y/f3/6WUeOHJl+VUOTfpb+liZ9LX1eDU3e1/L+Hj58OLW0tOR95NSqVavUoTFvFDBABpABZAAZQAaQAWQAGTCdgdS6devUoVEoVkZhUqkU1dfXm05IUsH19fVRT09P2p2MwFTLt5Zq7GvpY+lr6XPp52oZcZP3tPS3NHlfy/u7Glqk8Wrqa/w9q57PLvw9q66/Z76fXSn+Y6AOjdu2bUtPbcjU3YIFC6rhcyX9Ybp27dr0s86YMaNqpjb27t1Le/bsSQPEsmXLqqKv5SHXr19P3d3d6Sn5adOmVcVzY00j1jRWutCxphFrGitd495rGgGNOpIANAIadZRlxyugEdBoR406kQAaAY06yrLjFdBopC8AjYBGI1JUCwPQCGhUE5cRx4BGQKMRKaqFAWhUS62fY0AjoNFPMeFZAxoBjeGp1i9iQCOg0U8x4VkDGo30GaAR0GhEimphABoBjWriMuIY0AhoNCJFtTAAjWqp9XMMaAQ0+ikmPGtAI6AxPNX6RQxoBDT6KSY8a0CjkT4DNAIajUhRLQxAI6BRTVxGHAMaAY1GpKgWBqBRLbV+jgGNgEY/xYRnDWgENIanWr+IAY2ARj/FhGcNaDTSZ4BGQKMRKaqFAWgENKqJy4hjQCOg0YgU1cIANKql1s8xoBHQ6KeY8KwBjYDG8FTrFzGgEdDop5jwrAGNRvoM0AhoNCJFtTAAjYBGNXEZcQxoBDQakaJaGIBGtdT6OQY0Ahr9FBOeNaAR0Bieav0iBjQCGv0UE541oNFInwEaAY1GpKgWBqAR0KgmLiOOAY2ARiNSVAsD0KiWWj/HgEZAo59iwrMGNAIaw1OtX8SARkCjn2LCswY0GukzQCOg0YgU1cIANAIa1cRlxDGgEdBoRIpqYQAa1VLr5xjQCGj0U0x41oBGQGN4qvWLGNAIaPRTTHjWgEYjfQZoBDQakaJaGIBGQKOauIw4BjQCGo1IUS0MQKNaav0cAxoBjX6KCc8a0AhoDE+1fhEDGgGNfooJzxrQaKTPAI2ARiNSVAsD0AhoVBOXEceARkCjESmqhQFoVEutn2NAI6DRTzHhWQMaAY3hqdYvYkAjoNFPMeFZAxqN9BmgEdBoRIpqYQAaAY1q4jLiGNAIaDQiRbUwAI1qqfVzDGgENPopJjxrQCOgMTzV+kUMaAQ0+ikmPGtAo5E+AzQCGo1IUS0MQCOgUU1cRhwDGgGNRqSoFgagUS21fo4BjYBGP8WEZw1oBDSGp1q/iAGNgEY/xYRnDWg00meARkCjESmqhQFoBDSqicuIY0AjoNGIFNXCADSqpdbPMaAR0OinmPCsAY2AxvBU6xcxoBHQ6KeY8KwBjUb6DNAIaDQiRbUwAI2ARjVxGXEMaAQ0GpGiWhiARrXU+jkGNAIa/RQTnjWgEdAYnmr9IgY0Ahr9FBOeNaDRSJ8BGgGNRqSoFgagEdCoJi4jjgGNgEYjUlQLA9Collo/x4BGQKOfYsKzBjQCGsNTrV/EgEZAo59iwrMGNBrpM0AjoNGIFNXCADQCGtXEZcQxoBHQaESKamEAGtVS6+cY0Aho9FNMeNaARkBjeKr1ixjQCGj0U0x41oBGI30GaAQ0GpGiWhiARkCjmriMOAY0AhqNSFEtDECjWmr9HAMaAY1+ignPGtAIaAxPtX4RAxoBjX6KCc8a0GikzwCNgEYjUlQLA9AIaFQTlxHHgEZAoxEpqoUBaFRLrZ9jQCOg0U8x4VkDGgGN4anWL2JAI6DRTzHhWQMajfQZoBHQaESKamEAGgGNauIy4hjQCGg0IkW1MACNaqn1cwxoBDT6KSY8a0AjoDE81fpFDGgENPopJjxrQKORPgM0AhqNSFEtDEAjoFFNXEYcAxoBjUakqBYGoFEttX6OAY2ARj/FhGcNaAQ0hqdav4gBjYBGP8WEZw1oNNJngEZAoxEpqoUBaAQ0qonLiGNAI6DRiBTVwgA0qqXWzzGgEdDop5jwrAGNgMbwVOsXMaAR0OinmPCsAY1G+gzQCGg0IkW1MACNgEY1cRlxDGgENBqRoloYgEa11Po5BjQCGv0UE541oBHQGJ5q/SIGNAIa/RQTnjWg0UifARoBjUakqBYGoBHQqCYuI44BjYBGI1JUCwPQqJZaP8eARkCjn2LCswY0AhrDU61fxIBGQKOfYsKzBjQa6TNAI6DRiBTVwgA0AhrVxGXEMaAR0GhEimphABrVUuvnGNAIaPRTTHjWgEZAY3iq9YsY0Aho9FNMeNaARiN9BmgENBqRoloYgEZASYn9bwAABSBJREFUo5q4jDgGNAIajUhRLQxAo1pq/RwDGgGNfooJzxrQCGgMT7V+EQMaAY1+ignPGtBopM8AjYBGI1JUCwPQCGhUE5cRx4BGQKMRKaqFAWhUS62fY0AjoNFPMeFZAxoBjeGp1i9iQCOg0U8x4VkDGo30GaAR0GhEimphABoBjWriMuIY0AhoNCJFtTAAjWqp9XMMaAQ0+ikmPGtAI6AxPNX6RQxoBDT6KSY8a0CjkT4DNAIajUhRLQxAI6BRTVxGHAMaAY1GpKgWBqBRLbV+jgGNgEY/xYRnDWgENIanWr+IAY2ARj/FhGcNaDTSZ4BGQKMRKaqFAWgENKqJy4hjQCOg0YgU1cIANKql1s8xoBHQ6KeY8KwBjYDG8FTrFzGgEdDop5jwrAGNRvoM0AhoNCJFtTAAjYBGNXEZcQxoBDQakaJaGN7QuHr16j61aGKO+/oyt0mlUqW4nYl7VOMzS+Lx3NWh8aifq/V9jec28WdWNQj8LauOv2WRiKqxv32fObVq1aqSQKPqOxvOkQFkABlABpABZAAZQAZUM5Das2ePOjQeOXKETp48SfX19TRx4kTVB7LiXOh979696XDGjBlDI0aMsBKaahwdHR107Nix9IjylClTVO9lyfn+/ftJliSMGjWKWlpaLIWmFktXVxcdOnQo7X/y5MlUW1urdi9Ljg8ePEinTp2ixsZGam1ttRSaWiy9vb302muvpf2PGzeOhg8frnYvS47lb5n8Taurq6NJkyZZCk01Fvnsks8w+Vsmf9OqoQmjCKtIk8+uapkVPXDgAPX09KQZRVglX0uxMNShcdu2bSR/aJuammjBggX5YqqI32NNI9Y0VoSQh3gIrGnEmsZK1zjWNGJNY6Vr3HtNI6BRRxKARkCjjrLseAU0AhrtqFEnEkAjoFFHWXa8AhqN9AWgEdBoRIpqYQAaAY1q4jLiGNAIaDQiRbUwAI1qqfVzDGgENPopJjxrQCOgMTzV+kUMaAQ0+ikmPGtAo5E+AzQCGo1IUS0MQCOgUU1cRhwDGgGNRqSoFgagUS21fo4BjYBGP8WEZw1oBDSGp1q/iAGNgEY/xYRnDWg00meARkCjESmqhQFoBDSqicuIY0AjoNGIFNXCADSqpdbPMaAR0OinmPCsAY2AxvBU6xcxoBHQ6KeY8KwBjUb6DNAIaDQiRbUwAI2ARjVxGXEMaAQ0GpGiWhiARrXU+jkGNAIa/RQTnjWgEdAYnmr9IgY0Ahr9FBOeNaDRSJ8BGgGNRqSoFgagEdCoJi4jjgGNgEYjUlQLA9Collo/x4BGQKOfYsKzBjQCGsNTrV/EgEZAo59iwrMGNBrpM0AjoNGIFNXCADQCGtXEZcQxoBHQaESKamEAGtVS6+cY0Aho9FNMeNaARkBjeKr1ixjQCGj0U0x41oBGI30GaAQ0GpGiWhiARkCjmriMOAY0AhqNSFEtDECjWmr9HAMaAY1+ignPGtAIaAxPtX4RAxoBjX6KCc8a0GikzwCNgEYjUlQLA9AIaFQTlxHHgEZAoxEpqoUBaFRLrZ9jQCOg0U8x4VkDGgGN4anWL2JAI6DRTzHhWQMajfQZoBHQaESKamEAGgGNauIy4hjQCGg0IkW1MACNaqn1cwxoBDT6KSY8a0AjoDE81fpFDGgENPopJjxrQKORPgM0AhqNSFEtDEAjoFFNXEYcAxoBjUakqBYGoFEttX6OAY2ARj/FhGcNaAQ0hqdav4gBjYBGP8WEZ+0Ljf8f/5wmjn2XVBYAAAAASUVORK5CYII=;" vertex="1" parent="1">
          <mxGeometry x="110" y="-20" width="653" height="270" as="geometry" />
        </mxCell>
        <mxCell id="hyQ3IY4GtzbHKf-saY9M-8" value="" style="group" vertex="1" connectable="0" parent="1">
          <mxGeometry x="170.00221492030693" y="601.0045235993043" width="541.1255701593861" height="81.61095280139145" as="geometry" />
        </mxCell>
        <mxCell id="hyQ3IY4GtzbHKf-saY9M-6" value="" style="line;strokeWidth=2;html=1;rotation=-15;" vertex="1" parent="hyQ3IY4GtzbHKf-saY9M-8">
          <mxGeometry x="-3.442214920306924" y="35.805476400695724" width="278" height="10" as="geometry" />
        </mxCell>
        <mxCell id="hyQ3IY4GtzbHKf-saY9M-7" value="" style="line;strokeWidth=2;html=1;rotation=15;" vertex="1" parent="hyQ3IY4GtzbHKf-saY9M-8">
          <mxGeometry x="266.56778507969307" y="35.805476400695724" width="278" height="10" as="geometry" />
        </mxCell>
        <mxCell id="hyQ3IY4GtzbHKf-saY9M-9" value="" style="group;rotation=-180;" vertex="1" connectable="0" parent="1">
          <mxGeometry x="170.00221492030693" y="280.0045235993043" width="541.1255701593861" height="81.61095280139145" as="geometry" />
        </mxCell>
        <mxCell id="hyQ3IY4GtzbHKf-saY9M-10" value="" style="line;strokeWidth=2;html=1;rotation=-195;" vertex="1" parent="hyQ3IY4GtzbHKf-saY9M-9">
          <mxGeometry x="267" y="36" width="278" height="10" as="geometry" />
        </mxCell>
        <mxCell id="hyQ3IY4GtzbHKf-saY9M-11" value="" style="line;strokeWidth=2;html=1;rotation=-165;" vertex="1" parent="hyQ3IY4GtzbHKf-saY9M-9">
          <mxGeometry x="-3" y="36" width="278" height="10" as="geometry" />
        </mxCell>
        <mxCell id="hyQ3IY4GtzbHKf-saY9M-12" value="" style="rounded=0;whiteSpace=wrap;html=1;" vertex="1" parent="1">
          <mxGeometry x="377.57" y="359.62" width="120" height="243.38" as="geometry" />
        </mxCell>
      </root>
    </mxGraphModel>
  </diagram>
</mxfile>
